<?xml version="1.0" encoding="UTF-8"?>
<svg width="256px" height="256px" viewBox="0 0 256 256" version="1.1" xmlns="http://www.w3.org/2000/svg" xmlns:xlink="http://www.w3.org/1999/xlink">
    <title>c2_backup_256</title>
    <defs>
        <path d="M116.333419,35.0790968 C113.915613,36.5179355 111.034452,37.2809032 107.996516,37.2809032 L107.996516,37.2809032 C104.969032,37.2809032 102.084387,36.5179355 99.6630968,35.0756129 L99.6630968,35.0756129 L44.9489032,2.59548387 L2.5083871,27.7908387 C-0.787354839,29.7487742 -0.787354839,32.9504516 2.5083871,34.9083871 L2.5083871,34.9083871 L105.003871,95.7576774 C106.651742,96.7366452 109.348258,96.7366452 110.996129,95.7576774 L110.996129,95.7576774 L213.491613,34.9083871 C216.787355,32.9504516 216.787355,29.7487742 213.491613,27.7908387 L213.491613,27.7908387 L171.051097,2.59548387 L116.333419,35.0790968 Z" id="path-1"></path>
        <linearGradient x1="50.0000369%" y1="100.50677%" x2="50.0000369%" y2="-41.1907045%" id="linearGradient-3">
            <stop stop-color="#384BE6" offset="0%"></stop>
            <stop stop-color="#2FDDDF" offset="100%"></stop>
        </linearGradient>
        <path d="M105.003871,1.79070968 L2.5083871,62.6434839 C-0.787354839,64.5979355 -0.787354839,67.7996129 2.5083871,69.7575484 L2.5083871,69.7575484 L105.003871,130.606839 C106.651742,131.585806 109.348258,131.585806 110.996129,130.606839 L110.996129,130.606839 L213.491613,69.7575484 C216.787355,67.7996129 216.787355,64.5979355 213.491613,62.6434839 L213.491613,62.6434839 L110.996129,1.79070968 C110.173935,1.29948387 109.086968,1.0556129 108,1.0556129 L108,1.0556129 C106.916516,1.0556129 105.829548,1.29948387 105.003871,1.79070968" id="path-4"></path>
        <linearGradient x1="50%" y1="-0.00136930533%" x2="50%" y2="100.001369%" id="linearGradient-6">
            <stop stop-color="#24D291" stop-opacity="0.8" offset="0%"></stop>
            <stop stop-color="#1AC991" stop-opacity="0.86" offset="31%"></stop>
            <stop stop-color="#00B390" offset="76%"></stop>
        </linearGradient>
        <path d="M52.7458065,1.78025806 L5.92606452,29.5745806 C4.27819355,30.5535484 2.92993548,31.3583226 2.92993548,31.3583226 L2.92993548,31.3583226 C2.92993548,31.3583226 4.27819355,32.156129 5.92606452,33.1350968 L5.92606452,33.1350968 L52.7458065,60.9294194 C54.3936774,61.9083871 57.0901935,61.9083871 58.7380645,60.9294194 L58.7380645,60.9294194 L105.557806,33.1350968 C107.205677,32.156129 108.553935,31.3583226 108.553935,31.3583226 L108.553935,31.3583226 C108.553935,31.3583226 107.205677,30.5535484 105.557806,29.5745806 L105.557806,29.5745806 L58.7380645,1.78025806 C57.915871,1.28903226 56.8289032,1.04516129 55.7419355,1.04516129 L55.7419355,1.04516129 C54.6584516,1.04516129 53.5714839,1.28903226 52.7458065,1.78025806" id="path-7"></path>
        <linearGradient x1="50.0989446%" y1="-0.0029391466%" x2="50.0989446%" y2="99.8881218%" id="linearGradient-9">
            <stop stop-color="#2AD2CB" offset="17%"></stop>
            <stop stop-color="#2AA6D3" stop-opacity="0.5" offset="100%"></stop>
        </linearGradient>
    </defs>
    <g id="c2_backup_256" stroke="none" stroke-width="1" fill="none" fill-rule="evenodd">
        <g id="Group-11" transform="translate(20.000000, 20.000000)">
            <g id="Group-4" transform="translate(0.000000, 111.483871)">
                <mask id="mask-2" fill="white">
                    <use xlink:href="#path-1"></use>
                </mask>
                <g id="Clip-3"></g>
                <path d="M116.333419,35.0790968 C113.915613,36.5179355 111.034452,37.2809032 107.996516,37.2809032 L107.996516,37.2809032 C104.969032,37.2809032 102.084387,36.5179355 99.6630968,35.0756129 L99.6630968,35.0756129 L44.9489032,2.59548387 L2.5083871,27.7908387 C-0.787354839,29.7487742 -0.787354839,32.9504516 2.5083871,34.9083871 L2.5083871,34.9083871 L105.003871,95.7576774 C106.651742,96.7366452 109.348258,96.7366452 110.996129,95.7576774 L110.996129,95.7576774 L213.491613,34.9083871 C216.787355,32.9504516 216.787355,29.7487742 213.491613,27.7908387 L213.491613,27.7908387 L171.051097,2.59548387 L116.333419,35.0790968 Z" id="Fill-2" fill="url(#linearGradient-3)" mask="url(#mask-2)"></path>
            </g>
            <g id="Group-7" transform="translate(0.000000, 6.967742)">
                <mask id="mask-5" fill="white">
                    <use xlink:href="#path-4"></use>
                </mask>
                <g id="Clip-6"></g>
                <path d="M105.003871,1.79070968 L2.5083871,62.6434839 C-0.787354839,64.5979355 -0.787354839,67.7996129 2.5083871,69.7575484 L2.5083871,69.7575484 L105.003871,130.606839 C106.651742,131.585806 109.348258,131.585806 110.996129,130.606839 L110.996129,130.606839 L213.491613,69.7575484 C216.787355,67.7996129 216.787355,64.5979355 213.491613,62.6434839 L213.491613,62.6434839 L110.996129,1.79070968 C110.173935,1.29948387 109.086968,1.0556129 108,1.0556129 L108,1.0556129 C106.916516,1.0556129 105.829548,1.29948387 105.003871,1.79070968" id="Fill-5" fill="url(#linearGradient-6)" fill-rule="nonzero" mask="url(#mask-5)"></path>
            </g>
            <g id="Group-10" transform="translate(52.258065, 76.645161)">
                <mask id="mask-8" fill="white">
                    <use xlink:href="#path-7"></use>
                </mask>
                <g id="Clip-9"></g>
                <path d="M52.7458065,1.78025806 L5.92606452,29.5745806 C4.27819355,30.5535484 2.92993548,31.3583226 2.92993548,31.3583226 L2.92993548,31.3583226 C2.92993548,31.3583226 4.27819355,32.156129 5.92606452,33.1350968 L5.92606452,33.1350968 L52.7458065,60.9294194 C54.3936774,61.9083871 57.0901935,61.9083871 58.7380645,60.9294194 L58.7380645,60.9294194 L105.557806,33.1350968 C107.205677,32.156129 108.553935,31.3583226 108.553935,31.3583226 L108.553935,31.3583226 C108.553935,31.3583226 107.205677,30.5535484 105.557806,29.5745806 L105.557806,29.5745806 L58.7380645,1.78025806 C57.915871,1.28903226 56.8289032,1.04516129 55.7419355,1.04516129 L55.7419355,1.04516129 C54.6584516,1.04516129 53.5714839,1.28903226 52.7458065,1.78025806" id="Fill-8" fill="url(#linearGradient-9)" fill-rule="nonzero" mask="url(#mask-8)"></path>
            </g>
        </g>
    </g>
</svg>